<?xml version="1.0" encoding="UTF-8"?>
<svg width="187px" height="21px" viewBox="0 0 187 21" version="1.1" xmlns="http://www.w3.org/2000/svg" xmlns:xlink="http://www.w3.org/1999/xlink">
    <!-- Generator: Sketch 49.3 (51167) - http://www.bohemiancoding.com/sketch -->
    <title>01_Elemente/WE04_Logo/DT/Default</title>
    <desc>Created with Sketch.</desc>
    <defs></defs>
    <g id="01_Elemente/WE04_Logo/DT/Default" stroke="none" stroke-width="1" fill="none" fill-rule="evenodd">
        <path d="M73.0597232,8.22688941 C72.8946802,6.73642201 72.0666856,6.05823356 70.3926284,6.05823356 C68.965962,6.05823356 68.0785519,6.71468757 68.0785519,7.76751896 C68.0785519,8.64536962 68.6355286,9.17068018 69.7734566,9.38949818 L72.2522287,9.84886863 C74.8991708,10.3299735 76.3258372,11.8208093 76.3258372,14.1018212 C76.3258372,16.9707683 74.1330239,18.8111971 70.6608667,18.8111971 C66.982319,18.8111971 64.8746331,16.926931 64.8127854,13.6174009 L67.7484659,13.6174009 C67.934009,15.5237698 68.8214191,16.3364171 70.7845621,16.3364171 C72.2935763,16.3364171 73.3693091,15.5020354 73.3693091,14.3423736 C73.3693091,13.4206857 72.7914849,12.8519062 71.6744044,12.6330882 L69.4225231,12.1954522 C66.5486902,11.6237257 65.2252191,10.3082391 65.2252191,7.96460251 C65.2252191,5.29237056 67.2505573,3.58308517 70.5576714,3.58308517 C73.8025904,3.58308517 75.807081,5.31410501 75.8894288,8.22688941 L73.0597232,8.22688941 L73.0597232,8.22688941 Z M84.5936226,3.88920934 C87.6088712,3.88920934 89.3246234,5.24853329 89.3246234,7.61427268 C89.3246234,8.9080249 88.7467992,9.87060307 87.4028281,10.6173103 C89.1182328,11.2954987 89.8430322,12.4360047 89.8430322,14.3206392 C89.8430322,16.8830937 87.9399996,18.505073 84.9237086,18.505073 L78.4331757,18.505073 L78.4331757,3.88920934 L84.5936226,3.88920934 L84.5936226,3.88920934 Z M84.1780617,9.73945963 C85.6457282,9.73945963 86.4945704,9.1268429 86.4945704,8.09574596 C86.4945704,6.91434978 85.7284235,6.36435774 84.1367141,6.36435774 L81.3275086,6.36435774 L81.3275086,9.73945963 L84.1780617,9.73945963 L84.1780617,9.73945963 Z M84.3017571,16.0299246 C86.0175093,16.0299246 86.866004,15.3926264 86.866004,14.0800867 C86.866004,12.69866 86.0380094,12.0830962 84.1575616,12.0830962 L81.3275086,12.0830962 L81.3275086,16.0299246 L84.3017571,16.0299246 L84.3017571,16.0299246 Z M98.1935128,3.88920934 C101.208761,3.88920934 102.924514,5.24853329 102.924514,7.61427268 C102.924514,8.9080249 102.346689,9.87060307 101.002718,10.6173103 C102.718123,11.2954987 103.442922,12.4360047 103.442922,14.3206392 C103.442922,16.8830937 101.540932,18.505073 98.5235988,18.505073 L91.9712182,18.505073 L91.9712182,3.88920934 L98.1935128,3.88920934 L98.1935128,3.88920934 Z M97.7779519,9.73945963 C99.2459659,9.73945963 100.094461,9.1268429 100.094461,8.09574596 C100.094461,6.91434978 99.3283137,6.36435774 97.7366043,6.36435774 L94.8658986,6.36435774 L94.8658986,9.73945963 L97.7779519,9.73945963 L97.7779519,9.73945963 Z M97.9019947,16.0299246 C99.6173995,16.0299246 100.466242,15.3926264 100.466242,14.0800867 C100.466242,12.69866 99.6378996,12.0830962 97.7574518,12.0830962 L94.8658986,12.0830962 L94.8658986,16.0299246 L97.9019947,16.0299246 L97.9019947,16.0299246 Z" id="Fill-1" fill="#000000"></path>
        <path d="M120.959751,13.355114 C120.754615,16.708113 118.454612,18.8111971 115.003571,18.8111971 C111.139842,18.8111971 108.593607,15.8111066 108.593607,11.229927 C108.593607,6.67048191 111.204076,3.58308517 115.065043,3.58308517 C118.372765,3.58308517 120.590576,5.53329139 120.836462,8.62363517 L117.983215,8.62363517 C117.652374,6.95818706 116.688168,6.14553974 115.085763,6.14553974 C112.909049,6.14553974 111.491059,8.11748041 111.491059,11.2081926 C111.491059,14.2550675 112.888328,16.2708454 115.024292,16.2708454 C116.790736,16.2708454 117.775317,15.3487891 118.085783,13.355114 L120.959751,13.355114 L120.959751,13.355114 Z M125.849157,6.51760401 L125.849157,9.95827763 L131.931042,9.95827763 L131.931042,12.5019448 L125.849157,12.5019448 L125.849157,18.505073 L122.972426,18.505073 L122.972426,3.88920934 L132.525382,3.88920934 L132.525382,6.51760401 L125.849157,6.51760401 L125.849157,6.51760401 Z M137.889639,6.51760401 L137.889639,9.95827763 L144.047845,9.95827763 L144.047845,12.5019448 L137.889639,12.5019448 L137.889639,18.505073 L135.012908,18.505073 L135.012908,3.88920934 L144.648402,3.88920934 L144.648402,6.51760401 L137.889639,6.51760401 L137.889639,6.51760401 Z" id="Fill-2" fill="#000000"></path>
        <path d="M154.413553,6.51760401 L154.413553,9.95827763 L160.633139,9.95827763 L160.633139,12.5019448 L154.413553,12.5019448 L154.413553,18.505073 L151.515982,18.505073 L151.515982,3.88920934 L161.233214,3.88920934 L161.233214,6.51760401 L154.413553,6.51760401 L154.413553,6.51760401 Z M166.707411,6.51760401 L166.707411,9.95827763 L172.886225,9.95827763 L172.886225,12.5019448 L166.707411,12.5019448 L166.707411,18.505073 L163.804612,18.505073 L163.804612,3.88920934 L173.4863,3.88920934 L173.4863,6.51760401 L166.707411,6.51760401 L166.707411,6.51760401 Z M183.436313,8.22688941 C183.271136,6.73642201 182.443507,6.05823356 180.761417,6.05823356 C179.333714,6.05823356 178.44336,6.71468757 178.44336,7.76751896 C178.44336,8.64536962 179.002314,9.17068018 180.140783,9.38949818 L182.629941,9.84886863 C185.284277,10.3299735 186.712329,11.8208093 186.712329,14.1018212 C186.712329,16.9707683 184.513102,18.8111971 181.03044,18.8111971 C177.341481,18.8111971 175.23007,16.926931 175.16839,13.6174009 L178.107081,13.6174009 C178.292819,15.5237698 179.188748,16.3364171 181.154846,16.3364171 C182.670713,16.3364171 183.747501,15.5020354 183.747501,14.3423736 C183.747501,13.4206857 183.167639,12.8519062 182.050079,12.6330882 L179.788823,12.1954522 C176.906584,11.6237257 175.58203,10.3082391 175.58203,7.96460251 C175.58203,5.29237056 177.610156,3.58308517 180.926943,3.58308517 C184.181702,3.58308517 186.194843,5.31410501 186.277083,8.22688941 L183.436313,8.22688941 L183.436313,8.22688941 Z" id="Fill-3" fill="#000000"></path>
        <polygon id="Fill-4" fill="#EB0000" points="0 0 59.2328767 0 59.2328767 20.6027397 0 20.6027397"></polygon>
        <polyline id="Fill-5" fill="#FFFFFF" points="35.1856939 17.0196546 38.9373179 17.0196546 33.8889035 11.856586 40.1546781 11.856586 40.1546781 17.0196546 43.115751 17.0196546 43.115751 11.856586 49.3818665 11.856586 44.3320885 17.0196546 48.0840534 17.0196546 54.5114155 10.3118625 48.0840534 3.58308517 44.3320885 3.58308517 49.3818665 8.76713893 43.115751 8.76713893 43.115751 3.58308517 40.1546781 3.58308517 40.1546781 8.76713893 33.8889035 8.76713893 38.9373179 3.58308517 35.1856939 3.58308517 28.7579909 10.3118625 35.1856939 17.0196546"></polyline>
    </g>
</svg>